<?xml version="1.0" encoding="utf-8"?>
<!-- Generator: Adobe Illustrator 21.0.2, SVG Export Plug-In . SVG Version: 6.00 Build 0)  -->
<svg version="1.1" id="seed_logo" xmlns="http://www.w3.org/2000/svg" xmlns:xlink="http://www.w3.org/1999/xlink" x="0px" y="0px"
	 viewBox="0 0 450 200" style="enable-background:new 0 0 450 200;" xml:space="preserve">
<style type="text/css">
	.st0{opacity:0.1;fill:#2A3B47;}
	.st1{fill:#C17947;}
	.st2{fill:#EF9B63;}
	.st3{fill:#384149;}
	.st4{clip-path:url(#SVGID_2_);fill:#6E2940;}
	.st5{clip-path:url(#SVGID_2_);fill:#F072A5;}
	.st6{fill:#2A3B47;}
</style>
<g id="seed_logo_1_">
	<g>
		<ellipse class="st0" cx="57.6" cy="144.9" rx="44.1" ry="6.8"/>
		<g id="Seed_2_">
			<g id="Seed_3_">
				<path class="st1" d="M99.3,80.7c-10.4-39-54.1-61.5-65.4-58.4S-4,66.6,6.4,105.6c4.8,18.1,12.9,30.1,24.1,35.7
					c19,9.6,54.3-0.1,65.8-17.6C103.2,113.2,104.2,98.8,99.3,80.7z"/>
			</g>
			
				<ellipse id="Shine_1_" transform="matrix(0.9659 -0.2588 0.2588 0.9659 -7.4246 13.4068)" class="st2" cx="47.2" cy="34.9" rx="3.2" ry="3.2"/>
			<g id="Face_1_">
				<g>
					
						<ellipse transform="matrix(0.9659 -0.2588 0.2588 0.9659 -26.9705 12.4951)" class="st3" cx="34" cy="108.7" rx="5.8" ry="5.8"/>
					<ellipse transform="matrix(0.9659 -0.2588 0.2588 0.9659 -22.5174 23.246)" class="st3" cx="77" cy="97.1" rx="5.8" ry="5.8"/>
				</g>
				<g>
					<defs>
						<path id="SVGID_1_" d="M59.1,116.2c4.3-1.1,6.8-5.5,5.7-9.8l-15.5,4.1C50.4,114.8,54.8,117.4,59.1,116.2z"/>
					</defs>
					<clipPath id="SVGID_2_">
						<use xlink:href="#SVGID_1_"  style="overflow:visible;"/>
					</clipPath>
					<path class="st4" d="M59.1,116.2c4.3-1.1,6.8-5.5,5.7-9.8l-15.5,4.1C50.4,114.8,54.8,117.4,59.1,116.2z"/>
					<path class="st5" d="M57.5,110.4c-4.3,1.1-6.8,5.5-5.7,9.8l15.5-4.1C66.2,111.8,61.8,109.3,57.5,110.4z"/>
				</g>
			</g>
		</g>
	</g>
	<g id="Seed_4_">
		<g id="seed">
			<path class="st6" d="M121.2,115.1c8.1-1.9,16.3-1.6,25,0.2c-0.7,7.8,5.1,11.5,15.8,11.5c10.3,0,14.9-3.7,14.9-8.9
				c0.2-8.9-12.9-9-28-14.3c-10.5-3.7-26.9-10.8-26.4-28.7c0.5-16.3,15.8-27.5,40-27.3c26.6,0.2,39.3,12.9,38.6,29.9
				c-8.1,1.9-16.1,1.6-24.8-0.2c0.5-7.1-3.5-11.9-13.8-12c-9.2-0.2-14.7,3.5-14.7,9.4c0,9,13.8,9.6,28,14.3
				c12.9,4.1,27.5,10.5,26.7,28.3c-0.9,16.6-15.1,27.5-40.6,27.5C134.5,144.9,121.1,132.1,121.2,115.1z"/>
			<path class="st6" d="M194.5,95.1c0-28.5,15.2-47.5,45.3-47.5c29.8,0,46.6,20.4,42.7,54.2H220c0,15.4,6.4,22.7,20.2,22.7
				c11.3,0,16.3-5.7,17.4-12.2c8.7-1.1,16.1-0.5,23.7,2.1c-1.4,15.2-15.2,30.5-41.3,30.5C207.8,144.9,194.5,124.2,194.5,95.1z
				 M257,87c1.1-13.1-6.2-20.4-17.7-20.4c-12,0-19.1,7.3-19.3,20.4H257z"/>
			<path class="st6" d="M274.7,95.1c0-28.5,15.2-47.5,45.3-47.5c29.8,0,46.6,20.4,42.7,54.2h-62.5c0,15.4,6.4,22.7,20.2,22.7
				c11.3,0,16.3-5.7,17.4-12.2c8.7-1.1,16.1-0.5,23.7,2.1c-1.4,15.2-15.2,30.5-41.3,30.5C288,144.9,274.7,124.2,274.7,95.1z
				 M337.3,87c1.1-13.1-6.2-20.4-17.7-20.4c-12,0-19.1,7.3-19.3,20.4H337.3z"/>
			<path class="st6" d="M446.5,3v137.6c-6.6,1.8-11.7,1.8-18.2,0l-1.6-6.7c-10.8,8.5-20.7,11-29.2,11c-21.8,0-41.6-13.6-41.6-48.9
				c0-34.2,19-48.4,40.7-48.4c9,0,16.6,2.7,23.2,6.4V3C428.7,1.1,437.7,1.1,446.5,3z M403.9,123.5c5.8,0,11.3-2.1,16.5-5.1V74
				c-5-2.8-10.3-5-16.3-5c-13.3,0-22.1,7.8-22.1,26.9C381.9,115.3,390.9,123.5,403.9,123.5z"/>
		</g>
		<g id="Help_Scout">
			<path class="st6" d="M275.3,157.6L275.3,157.6l-0.1,12.7h-12v-12.7l-0.1,0c-1.8-0.4-3.6-0.4-5.3,0l-0.1,0v29.1l0.1,0
				c0.9,0.2,1.7,0.3,2.6,0.3s1.8-0.1,2.7-0.3l0.1,0V175h12v11.8l0.1,0c1.8,0.4,3.5,0.4,5.3,0l0.1,0v-29.1l-0.1,0
				C278.8,157.3,277,157.3,275.3,157.6z"/>
			<path class="st6" d="M293.9,165.8c-6.3,0-10,4-10,10.6c0,3.5,0.8,6.2,2.4,8.1c1.7,2.1,4.3,3.1,7.7,3.1c5.8,0,8.8-3.5,9.2-6.9
				l0-0.1l-0.1,0c-1.5-0.5-2.8-0.6-4.5-0.4l-0.1,0l0,0.1c-0.3,2-2,3.3-4.5,3.3c-3.5,0-5.2-1.9-5.2-5.8h14.6l0-0.1
				c0.4-3.8-0.3-7-2.2-9.1C299.5,166.8,297,165.8,293.9,165.8z M293.9,169.6c1.5,0,2.7,0.5,3.5,1.3c0.9,0.9,1.3,2.3,1.2,3.9h-9.7
				C288.9,171.5,290.8,169.6,293.9,169.6z"/>
			<path class="st6" d="M307,157.6L307,157.6l-0.1,29.2l0.1,0c0.8,0.2,1.7,0.3,2.5,0.3s1.7-0.1,2.5-0.3l0.1,0v-29.1l-0.1,0
				C310.4,157.3,308.7,157.3,307,157.6z"/>
			<path class="st6" d="M326.4,165.8c-2.2,0-4.5,0.9-6.7,2.5l-0.3-1.5l-0.1,0c-1.3-0.4-2.3-0.4-3.5,0l-0.1,0v29l0.1,0
				c0.8,0.2,1.7,0.3,2.5,0.3s1.7-0.1,2.5-0.3l0.1,0V186c1.7,1.1,3.6,1.6,5.6,1.6c5.7,0,9.2-4.1,9.2-10.9
				C335.8,169.8,332.4,165.8,326.4,165.8z M320.9,171.6c1.5-1.1,3-1.5,4.5-1.5c3.5,0,5.4,2.4,5.4,6.8c0,4.3-1.9,6.6-5.4,6.6
				c-1.5,0-3-0.5-4.4-1.5V171.6z"/>
			<path class="st6" d="M357.7,171.1c-0.9-0.3-1.7-0.6-2.4-0.9c-4-1.4-6.3-2.3-6.4-4.4c0-1,0.3-1.9,1-2.5c1-1,2.7-1.6,4.7-1.6
				c2,0,3.6,0.5,4.5,1.5c0.8,0.8,1.1,2,1,3.5l0,0.1l0.1,0c1.7,0.3,3.5,0.3,5.3-0.1l0.1,0l0-0.1c0.1-2.4-0.6-4.6-2.1-6.2
				c-1.9-2-4.9-3-8.7-3.1c0,0-0.1,0-0.1,0c-7,0-11.3,3.1-11.4,8.4c0,5.3,4.8,7,7.7,8l0.4,0.2c1,0.3,1.9,0.7,2.7,0.9
				c3.9,1.4,6.3,2.2,6.3,4.3c0,1.1-0.3,2-0.9,2.6c-0.9,1-2.6,1.5-4.8,1.4c-2.4,0-4.2-0.6-5.3-1.8c-0.8-0.8-1.1-1.9-1-3.2l0-0.1
				l-0.1,0c-1.8-0.3-3.5-0.3-5.3,0.1l-0.1,0l0,0.1c-0.2,2.4,0.6,4.5,2.1,6.1c2,2.2,5.4,3.3,9.7,3.3c4.2,0,11.2-1.1,11.2-8.5
				C365.9,174.3,361.7,172.7,357.7,171.1z"/>
			<path class="st6" d="M378.7,170c3.5,0,4.3,2.3,4.5,3.6l0,0.1l0.1,0c1.6,0.2,3.2,0.2,4.6-0.3l0.1,0l0-0.1c-0.1-2-1-3.9-2.5-5.2
				c-1.6-1.5-4-2.3-6.8-2.3c-6.6,0-10.3,3.9-10.3,11c0,7,3.6,10.9,10.2,10.9c2.8,0,5.2-0.8,6.9-2.4c1.4-1.3,2.2-3.1,2.4-4.9l0-0.1
				l-0.1,0c-1.4-0.5-2.9-0.6-4.6-0.3l-0.1,0l0,0.1c-0.5,3.2-3.5,3.4-4.5,3.4c-3.6,0-5.2-2.1-5.2-6.7
				C373.5,172.2,375.1,170,378.7,170z"/>
			<path class="st6" d="M400.5,165.8c-6.5,0-10.1,3.9-10.1,11c0,7,3.6,10.9,10.1,10.9c6.5,0,10.1-3.9,10.1-10.9
				C410.6,169.7,407,165.8,400.5,165.8z M405.7,176.8c0,4.5-1.7,6.7-5.2,6.7c-3.5,0-5.2-2.2-5.2-6.7c0-4.6,1.6-6.7,5.2-6.7
				C404,170,405.7,172.2,405.7,176.8z"/>
			<path class="st6" d="M427,166.7L427,166.7l-0.1,14.6c-1.6,1.4-3.1,2.1-4.9,2.1c-2.4,0-3.5-1.4-3.5-4.7v-11.9l-0.1,0
				c-1.7-0.4-3.3-0.4-5,0l-0.1,0v13.1c0,5,2.7,7.8,7.3,7.8c2.5,0,4.7-1,7-3.1l0.5,2.3l0.1,0c1.2,0.3,2.4,0.3,3.6,0l0.1,0v-20l-0.1,0
				C430.3,166.3,428.6,166.3,427,166.7z"/>
			<path class="st6" d="M447.7,182.9L447.7,182.9l-0.1-0.1c-2,0.5-3.1,0.4-3.8-0.1c-0.6-0.4-0.8-1.3-0.8-2.5v-9.3h4l0-0.1
				c0.3-1.4,0.3-2.8,0-4.1l0-0.1h-4v-5.5l-0.1,0c-1.7-0.4-3.3-0.4-5,0l-0.1,0l0,5.5h-2.6l0,0.1c-0.3,1.4-0.3,2.8,0,4.1l0,0.1h2.6
				l0,8.9c0,2.5,0.1,5,1.9,6.5c0.9,0.8,2.3,1.2,4.1,1.2c1.1,0,2.3-0.1,3.8-0.4l0.1,0l0-0.1C448,185.7,448.1,184.3,447.7,182.9z"/>
		</g>
		<g>
			<path class="st6" d="M227.2,176.8c0,7.8-4.2,11.2-9.5,11.2c-2.2,0-4.5-0.7-6.9-2.6l-0.4,1.7c-1.2,0.3-2.2,0.3-3.4,0v-31.7
				c1.7-0.4,3.4-0.4,5.1,0v12.1c1.6-1.1,3.6-1.8,5.9-1.8C223.4,165.7,227.2,169.3,227.2,176.8z M222.2,176.8c0-4.7-2.1-6.9-5.7-6.9
				c-1.8,0-3.3,0.7-4.7,1.6v10.8c1.4,1,3,1.6,4.7,1.6C220.1,183.9,222.2,181.5,222.2,176.8z"/>
			<path class="st6" d="M239.7,186.4l-4.3,11.7c-1.9,0.4-3.3,0.4-5.2,0l4-10.5l-7.8-20.9c1.7-0.4,3.5-0.4,5.3,0l5.2,15.3l5.2-15.3
				c1.7-0.4,3.4-0.4,5.2,0L239.7,186.4z"/>
		</g>
	</g>
</g>
</svg>
