<?xml version="1.0" encoding="utf-8"?>
<!-- Generator: Adobe Illustrator 20.1.0, SVG Export Plug-In . SVG Version: 6.00 Build 0)  -->
<!DOCTYPE svg PUBLIC "-//W3C//DTD SVG 1.1//EN" "http://www.w3.org/Graphics/SVG/1.1/DTD/svg11.dtd">
<svg version="1.1" id="Layer_1" xmlns="http://www.w3.org/2000/svg" xmlns:xlink="http://www.w3.org/1999/xlink" x="0px" y="0px"
	 viewBox="0 0 318.8 58.8" style="enable-background:new 0 0 318.8 58.8;" xml:space="preserve">
<style type="text/css">
	.st0{fill:#FFFFFF;}
	.st1{fill:#B2DEF6;}
</style>
<g>
	<path class="st0" d="M3.5,34.4l17.1-17.1l0,0c2.2-2.2,3.6-5.2,3.6-8.6c0-3.3-1.3-6.3-3.5-8.5L3.6,17.3l0,0C1.4,19.5,0,22.5,0,25.9
		C0,29.2,1.3,32.2,3.5,34.4z"/>
	<path class="st0" d="M44.9,24.4L27.8,41.5c0,0,0,0,0,0c-2.2,2.2-3.6,5.2-3.6,8.6c0,3.3,1.3,6.3,3.5,8.5l17.1-17.1c0,0,0,0,0,0
		c2.2-2.2,3.6-5.2,3.6-8.6C48.4,29.6,47.1,26.6,44.9,24.4z"/>
	<path class="st0" d="M3.6,41.5L3.6,41.5C1.4,43.7,0,46.8,0,50.1c0,3.3,1.3,6.3,3.5,8.5l41.3-41.3c0,0,0,0,0,0
		c2.2-2.2,3.6-5.2,3.6-8.6c0-3.3-1.3-6.3-3.5-8.5L3.6,41.5z"/>
	<path class="st0" d="M102.7,12.4H91.1v33.4h11.6c5,0,8.9-1.4,11.5-4.1c2.7-2.8,4.1-7.1,4.1-12.7C118.3,17.9,113.1,12.4,102.7,12.4z
		 M102.7,40.4h-5.4V17.7h5.4c6.2,0,9.2,3.6,9.2,11.5C111.9,36.6,108.8,40.4,102.7,40.4z"/>
	<path class="st0" d="M132.5,21.8c-7.1,0-11.4,4.5-11.4,12.1c0,3.9,0.9,7,2.7,9.2c2,2.4,4.9,3.6,8.8,3.6c6.6,0,10-3.9,10.4-7.8
		l0-0.1l-0.1,0c-1.7-0.6-3.2-0.7-5.1-0.4l-0.1,0l0,0.1c-0.4,2.3-2.3,3.7-5.1,3.7c-3.9,0-5.9-2.2-5.9-6.6h16.6l0-0.1
		c0.5-4.4-0.4-7.9-2.5-10.3C138.9,22.9,136,21.8,132.5,21.8z M137.7,32h-11c0.1-3.8,2.2-5.9,5.7-5.9c1.7,0,3,0.5,4,1.5
		C137.3,28.6,137.8,30.1,137.7,32z"/>
	<path class="st0" d="M161.9,22.8L161.9,22.8l-5.6,16.8l-5.5-16.7l0-0.1l-0.1,0c-1.9-0.4-4-0.4-5.9,0l-0.1,0l8.3,22.8l0.1,0
		c1,0.2,2.1,0.3,3.1,0.3s2.1-0.1,3.1-0.3l0.1,0l8.3-22.7l0-0.1l-0.1,0C165.7,22.4,163.8,22.4,161.9,22.8z"/>
	<path class="st0" d="M180.5,21.8c-7.1,0-11.4,4.5-11.4,12.1c0,3.9,0.9,7,2.7,9.2c2,2.4,4.9,3.6,8.8,3.6c6.6,0,10-3.9,10.4-7.8
		l0-0.1l-0.1,0c-1.7-0.6-3.2-0.7-5.1-0.4l-0.1,0l0,0.1c-0.4,2.3-2.3,3.7-5.1,3.7c-3.9,0-5.9-2.2-5.9-6.6h16.6l0-0.1
		c0.5-4.4-0.4-7.9-2.5-10.3C186.9,22.9,184,21.8,180.5,21.8z M185.7,32h-11c0.1-3.8,2.2-5.9,5.7-5.9c1.7,0,3,0.5,4,1.5
		C185.4,28.6,185.8,30.1,185.7,32z"/>
	<path class="st0" d="M195,10.4L195,10.4l-0.1,35.2l0.1,0c0.9,0.2,1.9,0.3,2.8,0.3c0.9,0,1.9-0.1,2.8-0.3l0.1,0V10.4l-0.1,0
		C198.7,9.9,196.8,9.9,195,10.4z"/>
	<path class="st0" d="M215.7,21.8c-7.4,0-11.5,4.4-11.5,12.5c0,8,4.1,12.4,11.5,12.4s11.5-4.4,11.5-12.4
		C227.2,26.2,223.1,21.8,215.7,21.8z M221.6,34.2c0,5.1-1.9,7.6-5.9,7.6s-5.9-2.5-5.9-7.6c0-5.2,1.9-7.7,5.9-7.7
		C219.7,26.6,221.6,29.1,221.6,34.2z"/>
	<path class="st0" d="M242.7,21.8c-2.5,0-5.1,1-7.6,2.8l-0.3-1.7l-0.1,0c-1.4-0.4-2.6-0.4-4,0l-0.1,0v35l0.1,0
		c0.9,0.2,1.9,0.3,2.8,0.3c0.9,0,1.9-0.1,2.8-0.3l0.1,0v-13c2,1.2,4.1,1.9,6.4,1.9c6.5,0,10.4-4.6,10.4-12.4
		C253.3,26.3,249.5,21.8,242.7,21.8z M236.4,28.3c1.7-1.2,3.4-1.8,5.1-1.8c4,0,6.1,2.8,6.1,7.8c0,4.9-2.1,7.5-6.2,7.5
		c-1.7,0-3.4-0.6-5-1.7V28.3z"/>
	<path class="st0" d="M268.2,21.8c-7.1,0-11.4,4.5-11.4,12.1c0,3.9,0.9,7,2.7,9.2c2,2.4,4.9,3.6,8.8,3.6c6.6,0,10-3.9,10.4-7.8
		l0-0.1l-0.1,0c-1.7-0.6-3.2-0.7-5.1-0.4l-0.1,0l0,0.1c-0.4,2.3-2.3,3.7-5.1,3.7c-3.9,0-5.9-2.2-5.9-6.6h16.6l0-0.1
		c0.5-4.4-0.4-7.9-2.5-10.3C274.6,22.9,271.8,21.8,268.2,21.8z M273.5,32h-11c0.1-3.8,2.2-5.9,5.7-5.9c1.7,0,3,0.5,4,1.5
		C273.1,28.6,273.6,30.1,273.5,32z"/>
	<path class="st0" d="M296.2,22.6L296.2,22.6c-4.2-0.9-7.1,1.3-8.9,3.2l-0.4-2.9l-0.1,0c-1.4-0.4-2.8-0.4-4.2,0l-0.1,0v22.8l0.1,0
		c0.9,0.2,1.9,0.3,2.8,0.3c0.9,0,1.9-0.1,2.8-0.3l0.1,0V29.9c1.7-1.6,3.7-3,7.6-2.6l0.1,0l0-0.1C296.5,25.6,296.6,24,296.2,22.6
		L296.2,22.6z"/>
	<path class="st0" d="M311.4,32.4c-0.7-0.2-1.4-0.4-2.1-0.6c-2.6-0.7-4.9-1.3-4.9-3.3c0-0.6,0.2-1.2,0.7-1.7
		c0.8-0.7,2.1-1.1,3.6-1.1c1.6,0,2.8,0.4,3.5,1.2c0.5,0.5,0.7,1.3,0.7,2.2l0,0.1l0.1,0c1.9,0.5,3.5,0.5,5.3,0.1l0.1,0l0-0.1
		c0.1-1.8-0.5-3.5-1.7-4.8c-1.7-1.8-4.4-2.7-7.9-2.7c0,0-0.1,0-0.1,0c-5.9,0-9.7,2.7-9.8,6.9c-0.1,4.9,5.1,6.5,7.3,7.3
		c0.8,0.3,1.6,0.5,2.4,0.7c2.6,0.7,4.6,1.3,4.6,3.2c0,1.7-1.6,2.7-4.4,2.7c-1.9,0-3.3-0.4-4-1.2c-0.5-0.5-0.7-1.2-0.6-2l0-0.1
		l-0.1,0c-2-0.4-3.7-0.5-5.4-0.1l-0.1,0l0,0.1c0,1.8,0.6,3.5,1.8,4.7c1.8,1.8,4.7,2.8,8.4,2.8c6.1,0,9.9-2.6,10.1-7
		C318.9,35.2,315.2,33.6,311.4,32.4z"/>
	<path class="st1" d="M70.7,0h-0.9c-0.8,0-1.5,0.7-1.5,1.5v55.9c0,0.8,0.7,1.5,1.5,1.5h0.9c0.8,0,1.5-0.7,1.5-1.5V1.5
		C72.2,0.7,71.5,0,70.7,0z"/>
</g>
</svg>
